<mxfile host="app.diagrams.net" modified="2023-06-01T03:12:33.494Z" agent="Mozilla/5.0 (Windows NT 10.0; Win64; x64) AppleWebKit/537.36 (KHTML, like Gecko) Chrome/115.0.0.0 Safari/537.36 Edg/115.0.0.0" version="21.3.4" etag="M-bpZYgSyj67zkui2P-9" type="github">
  <diagram name="第 1 页" id="yX_FcPADgAWo1sJm1uZ0">
    <mxGraphModel>
      <root>
        <mxCell id="0" />
        <mxCell id="1" parent="0" />
      </root>
    </mxGraphModel>
  </diagram>
</mxfile>
